<svg fill="none" xmlns="http://www.w3.org/2000/svg" viewBox="0 0 124 30">
  <g clip-path="url(#clip0)">
    <path d="M.074 22.06l4.41-3.378c2.342 3.057 4.83 4.466 7.601 4.466 2.756 0 5.174-1.392 7.411-4.426l4.473 3.296c-3.228 4.375-7.24 6.686-11.884 6.686-4.63 0-8.68-2.297-12.01-6.645z" fill="url(#paint0_linear)"/>
    <path d="M12.07 7.378L4.222 14.14.594 9.933 12.087.03 23.49 9.94l-3.645 4.193-7.774-6.755z" fill="url(#paint1_linear)"/>
    <path d="M40.878 24.532c-2.68 0-4.913-.869-6.724-2.606-1.811-1.761-2.704-4.019-2.704-6.774 0-2.778.917-5.061 2.728-6.848 1.837-1.811 4.07-2.704 6.726-2.704 3.276 0 6.177 1.413 7.866 3.622l-2.955 3.102C44.4 10.81 42.86 10.041 41.2 10.041c-1.415 0-2.581.47-3.55 1.439-.943.968-1.413 2.185-1.413 3.648 0 1.415.47 2.605 1.413 3.574.969.942 2.135 1.413 3.524 1.413 1.811 0 3.4-.795 4.715-2.358l3.078 2.954c-.845 1.117-1.986 2.035-3.4 2.754-1.415.72-2.978 1.067-4.691 1.067h.002zM54.174 5.326v18.933h-4.367V5.326h4.367zm4.139 4.018c-1.463 0-2.53-1.066-2.53-2.53 0-1.414 1.117-2.48 2.53-2.48 1.415 0 2.507 1.066 2.507 2.48 0 1.464-1.092 2.532-2.507 2.532v-.002zm2.21 1.217V24.26H56.13V10.561h4.392zm8.407 13.996c-2.16 0-3.897-.67-5.26-2.01-1.34-1.34-2.01-3.053-2.01-5.162 0-2.11.67-3.82 2.035-5.16 1.364-1.342 3.125-2.01 5.309-2.01 2.853 0 5.36 1.389 6.526 3.994l-3.499 1.837c-.694-1.166-1.662-1.763-2.927-1.763-.919 0-1.663.299-2.26.895a3.092 3.092 0 00-.868 2.207c0 1.811 1.315 3.152 3.078 3.152 1.265 0 2.431-.694 2.927-1.761l3.5 2.083c-1.192 2.284-3.648 3.698-6.551 3.698zm21.783-.298H85.5l-4.046-5.435-.645.596v4.84h-4.364V5.325h4.366v9.206l4.119-3.97h5.335l-5.88 5.508 6.328 8.19zm.293-7.122V5.92h4.664v11.143c0 2.06 1.191 3.052 2.904 3.052 1.687 0 2.878-1.043 2.878-3.052V5.92h4.691v11.217c0 5.41-3.749 7.444-7.569 7.444-3.796 0-7.568-2.035-7.568-7.444zm25.503-6.922c1.961 0 3.55.694 4.815 2.083 1.265 1.365 1.885 3.078 1.885 5.087 0 2.011-.644 3.722-1.909 5.137-1.267 1.39-2.854 2.085-4.765 2.085-1.515 0-2.829-.496-3.896-1.488v6.774h-4.393V10.56h4.319v1.267c1.067-1.069 2.381-1.613 3.944-1.613zm2.234 7.22c0-1.787-1.289-3.152-3.076-3.152-1.787 0-3.102 1.365-3.102 3.152 0 .869.296 1.613.868 2.234.595.62 1.339.918 2.234.918.892 0 1.637-.298 2.207-.918a3.193 3.193 0 00.87-2.234h-.001z" fill="#111"/>
  </g>
  <defs>
    <linearGradient id="paint0_linear" x1=".074" y1="25.498" x2="23.968" y2="25.498" gradientUnits="userSpaceOnUse">
      <stop stop-color="#8930FD"/>
      <stop offset="1" stop-color="#49CCF9"/>
    </linearGradient>
    <linearGradient id="paint1_linear" x1=".594" y1="9.627" x2="23.489" y2="9.627" gradientUnits="userSpaceOnUse">
      <stop stop-color="#FF02F0"/>
      <stop offset="1" stop-color="#FFC800"/>
    </linearGradient>
    <clipPath id="clip0">
      <path d="M0 0h123.333v30H0V0z" fill="#fff"/>
    </clipPath>
  </defs>
</svg>
